<?xml version="1.0" encoding="UTF-8" standalone="no"?>
<!-- Created with Inkscape (http://www.inkscape.org/) -->

<svg
   xmlns:dc="http://purl.org/dc/elements/1.1/"
   xmlns:cc="http://creativecommons.org/ns#"
   xmlns:rdf="http://www.w3.org/1999/02/22-rdf-syntax-ns#"
   xmlns:svg="http://www.w3.org/2000/svg"
   xmlns="http://www.w3.org/2000/svg"
   xmlns:xlink="http://www.w3.org/1999/xlink"
   xmlns:sodipodi="http://sodipodi.sourceforge.net/DTD/sodipodi-0.dtd"
   xmlns:inkscape="http://www.inkscape.org/namespaces/inkscape"
   id="svg2876"
   version="1.1"
   inkscape:version="0.47 r22583"
   width="140"
   height="197"
   sodipodi:docname="ship-large.png">
  <metadata
     id="metadata2882">
    <rdf:RDF>
      <cc:Work
         rdf:about="">
        <dc:format>image/svg+xml</dc:format>
        <dc:type
           rdf:resource="http://purl.org/dc/dcmitype/StillImage" />
        <dc:title></dc:title>
      </cc:Work>
    </rdf:RDF>
  </metadata>
  <defs
     id="defs2880">
    <inkscape:perspective
       sodipodi:type="inkscape:persp3d"
       inkscape:vp_x="0 : 0.5 : 1"
       inkscape:vp_y="0 : 1000 : 0"
       inkscape:vp_z="1 : 0.5 : 1"
       inkscape:persp3d-origin="0.5 : 0.33333333 : 1"
       id="perspective2884" />
  </defs>
  <sodipodi:namedview
     pagecolor="#ffffff"
     bordercolor="#666666"
     borderopacity="1"
     objecttolerance="10"
     gridtolerance="10"
     guidetolerance="10"
     inkscape:pageopacity="0"
     inkscape:pageshadow="2"
     inkscape:window-width="1280"
     inkscape:window-height="753"
     id="namedview2878"
     showgrid="false"
     inkscape:zoom="1.1979695"
     inkscape:cx="70"
     inkscape:cy="98.5"
     inkscape:window-x="0"
     inkscape:window-y="0"
     inkscape:window-maximized="1"
     inkscape:current-layer="svg2876" />
  <image
     xlink:href="file:///home/sanasta/Documents/ship-large.png"
     width="140"
     height="197"
     id="image2886"
     x="0"
     y="0" />
  <g
     id="g2888">
    <path
       style="fill:#fbfbfb"
       d="M 0,98.5 0,0 l 70,0 70,0 0,98.5 0,98.5 -70,0 -70,0 0,-98.5 z"
       id="path2904" />
    <path
       style="fill:#b8b9b8"
       d="m 61.531703,196.0513 c -0.322483,-0.52179 -0.09931,-2.88429 0.495944,-5.25 0.595252,-2.36572 0.945044,-7.2263 0.777315,-10.8013 L 62.5,173.5 60,177.73282 c -2.523891,4.27326 -4.422574,5.74208 -6.090242,4.71141 -1.57509,-0.97346 -0.990483,-8.8965 1.106063,-14.99022 1.108702,-3.22249 1.888234,-6.24185 1.732293,-6.70967 -0.15594,-0.46782 -2.385064,0.78671 -4.953608,2.78784 -6.637849,5.1715 -8.318429,4.5114 -8.202998,-3.22202 0.09548,-6.39701 1.497217,-11.01361 4.67799,-15.40695 2.185562,-3.01874 2.027673,-8.82483 -0.269498,-9.9103 -0.825,-0.38983 -2.939466,-1.45955 -4.698813,-2.37715 -5.122446,-2.67164 -11.206236,-4.57841 -11.758244,-3.68524 -0.279921,0.45292 -2.429096,1.33006 -4.775945,1.9492 C 21.776303,132.19634 17,136.08403 17,138.82959 c 0,3.18985 -2.414531,4.29685 -8.6652997,3.97283 L 2.5006547,142.5 1.6961819,136.5 C 0.51476761,127.68866 1.3399308,115.08898 3.3498248,111.25 4.6391022,108.78743 5.7155861,108 7.7928559,108 c 1.786277,0 4.4776601,-1.49225 7.7243201,-4.28278 6.492408,-5.580281 9.232075,-7.262204 14.305121,-8.782125 L 34,93.683425 34.010317,84.591712 C 34.028094,68.927141 35.903985,52.052349 38.467126,44.5 42.713373,31.988338 45.439546,27.71215 56.072823,16.884271 61.681525,11.172922 66.936364,5.4875 67.750242,4.25 68.56412,3.0125 69.773808,2 70.438437,2 c 1.848585,0 17.305781,16.463441 24.322122,25.905462 3.435342,4.623005 6.731211,10.248005 7.324161,12.5 0.59294,2.251996 1.64778,4.994538 2.34407,6.094538 0.70762,1.117886 1.55075,7.072153 1.91161,13.5 0.35509,6.325 0.94213,16.165808 1.30455,21.868462 l 0.65893,10.368462 6.7592,4.372505 c 3.71756,2.404878 7.81169,4.825491 9.09806,5.379151 1.28637,0.55365 3.01386,1.42525 3.83886,1.93688 0.825,0.51163 2.2181,1.14695 3.09577,1.41182 0.87768,0.26487 3.02825,2.64423 4.77906,5.28746 l 3.18327,4.80587 -0.27905,12.03469 L 138.5,139.5 l -6.76373,0.296 c -5.36811,0.23493 -6.88615,-0.023 -7.35699,-1.25 -0.32629,-0.8503 -1.5045,-1.546 -2.61823,-1.546 -2.33711,0 -8.09654,-3.25081 -11.84131,-6.68363 l -2.58026,-2.36531 -4.66974,2.60996 C 100.10138,131.9965 98,133.75152 98,134.46106 c 0,1.33677 3.90075,10.76257 6.65376,16.07819 2.50872,4.84393 1.5164,7.00663 -3.08524,6.7241 -3.665364,-0.22505 -3.773787,-0.14765 -2.211429,1.57874 0.903599,0.99846 1.655429,2.22996 1.670729,2.73665 0.0153,0.50669 1.3653,2.68892 3,4.8494 1.6347,2.16048 2.97218,4.45384 2.97218,5.09636 0,1.78364 3.03552,7.4755 3.98676,7.4755 0.46215,0 0.50415,1.2375 0.0933,2.75 -0.60461,2.22603 -1.30264,2.73668 -3.66351,2.6801 -4.35446,-0.10435 -6.801,-0.78357 -7.91659,-2.19783 -0.55,-0.69724 -3.39538,-1.55132 -6.323068,-1.89794 l -5.323067,-0.63022 0.80697,3.89795 c 0.443833,2.14386 0.814214,5.92294 0.823067,8.39794 0.01454,4.06599 -0.225017,4.52618 -2.483902,4.77144 -1.661422,0.18039 -4.267818,-1.07748 -7.770286,-3.75 C 76.331056,190.80965 73.743556,189 73.479714,189 73.215871,189 73,189.81537 73,190.81194 c 0,3.76192 -9.655227,8.17297 -11.468297,5.23936 z"
       id="path2902" />
    <path
       style="fill:#f8f80d"
       d="m 61.531703,196.0513 c -0.322483,-0.52179 -0.09931,-2.88429 0.495944,-5.25 0.595252,-2.36572 0.945044,-7.2263 0.777315,-10.8013 L 62.5,173.5 60,177.73282 c -2.523891,4.27326 -4.422574,5.74208 -6.090242,4.71141 -1.57509,-0.97346 -0.990483,-8.8965 1.106063,-14.99022 1.108702,-3.22249 1.888234,-6.24185 1.732293,-6.70967 -0.15594,-0.46782 -2.385064,0.78671 -4.953608,2.78784 -6.637849,5.1715 -8.318429,4.5114 -8.202998,-3.22202 0.09548,-6.39701 1.497217,-11.01361 4.67799,-15.40695 2.185562,-3.01874 2.027673,-8.82483 -0.269498,-9.9103 -0.825,-0.38983 -2.939466,-1.45955 -4.698813,-2.37715 -5.122446,-2.67164 -11.206236,-4.57841 -11.758244,-3.68524 -0.279921,0.45292 -2.429096,1.33006 -4.775945,1.9492 C 21.776303,132.19634 17,136.08403 17,138.82959 c 0,3.18985 -2.414531,4.29685 -8.6652997,3.97283 L 2.5006547,142.5 1.6961819,136.5 C 0.51476761,127.68866 1.3399308,115.08898 3.3498248,111.25 4.6391022,108.78743 5.7155861,108 7.7928559,108 c 1.786277,0 4.4776601,-1.49225 7.7243201,-4.28278 6.492408,-5.580281 9.232075,-7.262204 14.305121,-8.782125 L 34,93.683425 34.010317,84.591712 C 34.028094,68.927141 35.903985,52.052349 38.467126,44.5 42.713373,31.988338 45.439546,27.71215 56.072823,16.884271 61.681525,11.172922 66.936364,5.4875 67.750242,4.25 68.56412,3.0125 69.773808,2 70.438437,2 c 1.848585,0 17.305781,16.463441 24.322122,25.905462 3.435342,4.623005 6.731211,10.248005 7.324161,12.5 0.59294,2.251996 1.64778,4.994538 2.34407,6.094538 0.70762,1.117886 1.55075,7.072153 1.91161,13.5 0.35509,6.325 0.94213,16.165808 1.30455,21.868462 l 0.65893,10.368462 6.7592,4.372505 c 3.71756,2.404878 7.81169,4.825491 9.09806,5.379151 1.28637,0.55365 3.01386,1.42525 3.83886,1.93688 0.825,0.51163 2.2181,1.14695 3.09577,1.41182 0.87768,0.26487 3.02825,2.64423 4.77906,5.28746 l 3.18327,4.80587 -0.27905,12.03469 L 138.5,139.5 l -6.76373,0.296 c -5.36811,0.23493 -6.88615,-0.023 -7.35699,-1.25 -0.32629,-0.8503 -1.5045,-1.546 -2.61823,-1.546 -2.33711,0 -8.09654,-3.25081 -11.84131,-6.68363 l -2.58026,-2.36531 -4.66974,2.60996 C 100.10138,131.9965 98,133.75152 98,134.46106 c 0,1.33677 3.90075,10.76257 6.65376,16.07819 2.50872,4.84393 1.5164,7.00663 -3.08524,6.7241 -3.665364,-0.22505 -3.773787,-0.14765 -2.211429,1.57874 0.903599,0.99846 1.655429,2.22996 1.670729,2.73665 0.0153,0.50669 1.3653,2.68892 3,4.8494 1.6347,2.16048 2.97218,4.50929 2.97218,5.21958 0,0.7103 0.92392,2.93641 2.05316,4.94693 4.18355,7.44845 0.64502,10.37402 -7.67567,6.34604 -2.507233,-1.21373 -6.574901,-2.43404 -9.039264,-2.71181 l -4.48066,-0.50504 0.805119,3.88808 c 0.442816,2.13844 0.812364,5.91308 0.821217,8.38808 0.01454,4.06599 -0.225017,4.52618 -2.483902,4.77144 -1.661422,0.18039 -4.267818,-1.07748 -7.770286,-3.75 C 76.331056,190.80965 73.743556,189 73.479714,189 73.215871,189 73,189.81537 73,190.81194 c 0,3.76192 -9.655227,8.17297 -11.468297,5.23936 z M 86,191 c 0,-0.55 -0.701558,-1 -1.559017,-1 -0.857459,0 -1.280902,0.45 -0.940983,1 0.339919,0.55 1.041476,1 1.559017,1 C 85.576558,192 86,191.55 86,191 z m -17.5,-1 c 0.339919,-0.55 0.141476,-1 -0.440983,-1 C 67.476558,189 67,189.45 67,190 c 0,0.55 0.198442,1 0.440983,1 0.242541,0 0.719098,-0.45 1.059017,-1 z m 0.107127,-3.47106 C 68.24519,184.06291 67,183.52395 67,185.83333 67,187.025 67.410182,188 67.911516,188 c 0.501334,0 0.814359,-0.66198 0.695611,-1.47106 z M 69,170.5 c 0,-0.825 -0.435877,-1.5 -0.968615,-1.5 -0.532739,0 -0.709594,0.675 -0.393011,1.5 0.316582,0.825 0.752459,1.5 0.968615,1.5 C 68.823145,172 69,171.325 69,170.5 z m -7.310674,-13.25 c -0.251528,-0.9625 -0.457323,-0.175 -0.457323,1.75 0,1.925 0.205795,2.7125 0.457323,1.75 0.251527,-0.9625 0.251527,-2.5375 0,-3.5 z M 49,160.55902 c 0,-0.24254 -0.45,-0.7191 -1,-1.05902 -0.55,-0.33992 -1,-0.14148 -1,0.44098 0,0.58246 0.45,1.05902 1,1.05902 0.55,0 1,-0.19844 1,-0.44098 z m 15.09387,-6.6395 c -0.90871,-2.27345 -0.970924,-2.21123 -1.030484,1.03048 -0.04351,2.36804 0.259786,3.12683 0.967098,2.41952 0.682356,-0.68236 0.70377,-1.84787 0.06339,-3.45 z M 96.683114,143.8125 c -0.319226,-0.79773 -0.556183,-0.56078 -0.604167,0.60417 -0.04342,1.05416 0.192928,1.64479 0.52522,1.3125 0.332291,-0.3323 0.367818,-1.1948 0.07895,-1.91667 z M 124.52584,121.25 c 0.38571,-6.4625 0.71168,-12.2 0.72436,-12.75 0.0127,-0.55 -2.40092,-2.35437 -5.36357,-4.00971 -2.96264,-1.65534 -6.94079,-4.00118 -8.84032,-5.212979 -1.89953,-1.211797 -3.54908,-2.107427 -3.66568,-1.990289 -0.1166,0.117138 0.29397,6.625478 0.91238,14.462978 0.75467,9.56451 1.5087,14.25 2.29323,14.25 0.64288,0 1.74539,0.69466 2.45003,1.5437 1.15935,1.39693 8.50881,5.33062 10.126,5.41978 0.36425,0.0201 0.97785,-5.25098 1.36357,-11.71348 z M 18.361626,129.5 c 0.316583,-0.825 1.213052,-1.5 1.992155,-1.5 0.779102,0 3.694031,-0.73554 6.47762,-1.63454 l 5.061071,-1.63455 0.303764,-12.91297 L 32.5,98.904971 30.047565,99.522346 c -1.348839,0.339555 -4.114141,1.823434 -6.145116,3.297514 C 9.1921029,113.49659 9.3774658,113.16444 13.477871,121.5 c 1.352771,2.75 2.473657,6.0125 2.490857,7.25 0.03542,2.54833 1.523802,3.01483 2.392898,0.75 z M 74.164419,80.511484 c 0.513142,-2.845896 3.663623,-3.15055 4.662308,-0.450849 0.798878,2.159574 0.874834,2.13548 3.386886,-1.074327 C 85.169155,75.209825 88,75.445782 88,79.468615 88,82.50179 89.517253,82.770539 91,80 c 1.255388,-2.345713 4.809175,-2.660856 5.638374,-0.5 0.773683,2.016186 1.973266,1.88836 4.322196,-0.460568 1.77935,-1.779347 1.90385,-2.891529 1.34697,-12.032323 -0.40355,-6.623964 -0.98912,-9.948297 -1.71057,-9.711104 -0.603333,0.198358 -1.244374,1.36542 -1.424534,2.593472 -0.433786,2.956872 -2.806392,3.751764 -5.073733,1.699848 -1.714332,-1.551449 -1.928949,-1.497348 -3.485808,0.878719 C 89.380946,64.348237 88.086416,65 85.583936,65 c -2.13433,0 -3.590016,0.573461 -3.970127,1.564014 -0.330092,0.860207 -1.390737,1.466048 -2.356989,1.346313 -0.966251,-0.119736 -2.59448,0.143851 -3.618287,0.585748 -1.191672,0.514352 -2.842792,0.223767 -4.588729,-0.807583 C 69.138623,66.559529 68.007179,66.392821 67.26863,67.13137 66.530081,67.869919 65.603804,67.85833 64.173101,67.09264 63.050211,66.491688 61.227416,66 60.122445,66 c -1.10497,0 -2.646302,-0.909823 -3.425181,-2.021828 -1.250772,-1.785727 -1.563632,-1.844115 -2.679148,-0.5 C 52.249205,65.609579 49.910316,65.373051 49.289749,63 48.710687,60.785662 46.994672,60.405328 45.287132,62.112868 43.833756,63.566244 42,62.387562 42,60 c 0,-3.059725 -1.788314,-3.251352 -2.414507,-0.258726 -1.017413,4.862295 -0.407556,12.161511 1.122181,13.43108 1.13714,0.943742 1.882511,0.940163 3.414204,-0.0164 C 46.653546,71.574906 48,72.46304 48,75.714005 c 0,2.451592 0.101708,2.503926 1.828741,0.940983 2.545097,-2.303282 4.025207,-2.069644 5.353213,0.845012 1.284013,2.818102 1.888408,3.029638 3.643005,1.275041 0.947163,-0.947163 1.653521,-0.957319 3.114722,-0.04478 1.502078,0.938064 2.137527,0.881639 3.097486,-0.27504 1.963279,-2.365607 3.759561,-1.685839 5.557552,2.103146 1.708008,3.599358 2.915107,3.583506 3.5697,-0.04688 z m 7.411694,-54.356056 4.570211,-2.844572 -7.43978,-7.76018 -7.43978,-7.7601812 -4.976937,4.8547522 C 61.295382,17.517079 56,24.077193 56,25.392665 c 0,1.694375 7.083566,3.532201 13.752951,3.568193 6.271649,0.03385 7.871286,-0.34572 11.823162,-2.80543 z"
       id="path2900" />
    <path
       style="fill:#ef8717"
       d="m 61.531703,196.0513 c -0.322483,-0.52179 -0.09931,-2.88429 0.495944,-5.25 0.595252,-2.36572 0.945044,-7.2263 0.777315,-10.8013 L 62.5,173.5 60,177.73282 c -2.523891,4.27326 -4.422574,5.74208 -6.090242,4.71141 -1.57509,-0.97346 -0.990483,-8.8965 1.106063,-14.99022 1.108702,-3.22249 1.888234,-6.24185 1.732293,-6.70967 -0.15594,-0.46782 -2.385064,0.78671 -4.953608,2.78784 -6.637849,5.1715 -8.318429,4.5114 -8.202998,-3.22202 0.09548,-6.39701 1.497217,-11.01361 4.67799,-15.40695 2.185562,-3.01874 2.027673,-8.82483 -0.269498,-9.9103 -0.825,-0.38983 -2.939466,-1.45955 -4.698813,-2.37715 -5.122446,-2.67164 -11.206236,-4.57841 -11.758244,-3.68524 -0.279921,0.45292 -2.429096,1.33006 -4.775945,1.9492 C 21.776303,132.19634 17,136.08403 17,138.82959 c 0,3.18985 -2.414531,4.29685 -8.6652997,3.97283 L 2.5006547,142.5 1.6961819,136.5 C 0.51476761,127.68866 1.3399308,115.08898 3.3498248,111.25 4.6391022,108.78743 5.7155861,108 7.7928559,108 c 1.786277,0 4.4776601,-1.49225 7.7243201,-4.28278 6.492408,-5.580281 9.232075,-7.262204 14.305121,-8.782125 L 34,93.683425 34.010317,84.591712 C 34.028094,68.927141 35.903985,52.052349 38.467126,44.5 42.713373,31.988338 45.439546,27.71215 56.072823,16.884271 61.681525,11.172922 66.936364,5.4875 67.750242,4.25 68.56412,3.0125 69.773808,2 70.438437,2 c 1.848585,0 17.305781,16.463441 24.322122,25.905462 3.435342,4.623005 6.731211,10.248005 7.324161,12.5 0.59294,2.251996 1.64778,4.994538 2.34407,6.094538 0.70762,1.117886 1.55075,7.072153 1.91161,13.5 0.35509,6.325 0.94213,16.165808 1.30455,21.868462 l 0.65893,10.368462 6.7592,4.372505 c 3.71756,2.404878 7.81169,4.825491 9.09806,5.379151 1.28637,0.55365 3.01386,1.42525 3.83886,1.93688 0.825,0.51163 2.2181,1.14695 3.09577,1.41182 0.87768,0.26487 3.02825,2.64423 4.77906,5.28746 l 3.18327,4.80587 -0.27905,12.03469 L 138.5,139.5 l -6.76373,0.296 c -5.36811,0.23493 -6.88615,-0.023 -7.35699,-1.25 -0.32629,-0.8503 -1.5045,-1.546 -2.61823,-1.546 -2.33711,0 -8.09654,-3.25081 -11.84131,-6.68363 l -2.58026,-2.36531 -4.66974,2.60996 C 100.10138,131.9965 98,133.75152 98,134.46106 c 0,1.33677 3.90075,10.76257 6.65376,16.07819 2.50872,4.84393 1.5164,7.00663 -3.08524,6.7241 -3.665364,-0.22505 -3.773787,-0.14765 -2.211429,1.57874 0.903599,0.99846 1.655429,2.22996 1.670729,2.73665 0.0153,0.50669 1.3653,2.68892 3,4.8494 1.6347,2.16048 2.97218,4.50929 2.97218,5.21958 0,0.7103 0.92392,2.93641 2.05316,4.94693 4.18355,7.44845 0.64502,10.37402 -7.67567,6.34604 -2.507233,-1.21373 -6.574901,-2.43404 -9.039264,-2.71181 l -4.48066,-0.50504 0.805119,3.88808 c 0.442816,2.13844 0.812364,5.91308 0.821217,8.38808 0.01454,4.06599 -0.225017,4.52618 -2.483902,4.77144 -1.661422,0.18039 -4.267818,-1.07748 -7.770286,-3.75 C 76.331056,190.80965 73.743556,189 73.479714,189 73.215871,189 73,189.81537 73,190.81194 c 0,3.76192 -9.655227,8.17297 -11.468297,5.23936 z M 86,191 c 0,-0.55 -0.701558,-1 -1.559017,-1 -0.857459,0 -1.280902,0.45 -0.940983,1 0.339919,0.55 1.041476,1 1.559017,1 C 85.576558,192 86,191.55 86,191 z m -17.5,-1 c 0.339919,-0.55 0.141476,-1 -0.440983,-1 C 67.476558,189 67,189.45 67,190 c 0,0.55 0.198442,1 0.440983,1 0.242541,0 0.719098,-0.45 1.059017,-1 z m 0.107127,-3.47106 C 68.24519,184.06291 67,183.52395 67,185.83333 67,187.025 67.410182,188 67.911516,188 c 0.501334,0 0.814359,-0.66198 0.695611,-1.47106 z M 69,170.5 c 0,-0.825 -0.435877,-1.5 -0.968615,-1.5 -0.532739,0 -0.709594,0.675 -0.393011,1.5 0.316582,0.825 0.752459,1.5 0.968615,1.5 C 68.823145,172 69,171.325 69,170.5 z M 85.562646,159.307 C 84.153191,157.2328 83,154.61221 83,153.48347 83,150.91503 87.733553,148 91.904292,148 c 1.702639,0 3.072482,-0.3375 3.044094,-0.75 -0.02839,-0.4125 -1.92276,-2.25031 -4.209717,-4.08401 -3.783806,-3.0339 -4.566803,-3.27419 -8.698386,-2.66933 -6.499257,0.95148 -17.172092,1.00359 -19.692377,0.0961 -1.777351,-0.63994 -2.608021,-0.10603 -4.770423,3.06616 -2.341259,3.43457 -2.430984,3.8716 -0.847907,4.12996 6.279697,1.02486 6.270364,1.01596 6.271645,5.98012 l 0.0012,4.73095 2.365128,-2.75 c 3.668802,-4.26582 4.511329,-3.48791 4.873768,4.5 0.280251,6.17652 0.453312,6.76879 1.16881,4 0.461918,-1.7875 1.260159,-3.25 1.773868,-3.25 0.513709,0 0.612931,0.51953 0.220491,1.15451 -0.418241,0.67673 -0.276643,0.8845 0.342157,0.50206 0.580625,-0.35885 3.912654,0.62793 7.404509,2.19284 l 6.348826,2.8453 0.312646,-2.30822 c 0.172137,-1.27086 -0.83905,-4.00309 -2.25,-6.07949 z m -23.87332,-2.057 c -0.251528,-0.9625 -0.457323,-0.175 -0.457323,1.75 0,1.925 0.205795,2.7125 0.457323,1.75 0.251527,-0.9625 0.251527,-2.5375 0,-3.5 z M 49,160.55902 c 0,-0.24254 -0.45,-0.7191 -1,-1.05902 -0.55,-0.33992 -1,-0.14148 -1,0.44098 0,0.58246 0.45,1.05902 1,1.05902 0.55,0 1,-0.19844 1,-0.44098 z M 96.683114,143.8125 c -0.319226,-0.79773 -0.556183,-0.56078 -0.604167,0.60417 -0.04342,1.05416 0.192928,1.64479 0.52522,1.3125 0.332291,-0.3323 0.367818,-1.1948 0.07895,-1.91667 z M 124.52584,121.25 c 0.38571,-6.4625 0.71168,-12.2 0.72436,-12.75 0.0127,-0.55 -2.40092,-2.35437 -5.36357,-4.00971 -2.96264,-1.65534 -6.94079,-4.00118 -8.84032,-5.212979 -1.89953,-1.211797 -3.54908,-2.107427 -3.66568,-1.990289 -0.1166,0.117138 0.29397,6.625478 0.91238,14.462978 0.75467,9.56451 1.5087,14.25 2.29323,14.25 0.64288,0 1.74539,0.69466 2.45003,1.5437 1.15935,1.39693 8.50881,5.33062 10.126,5.41978 0.36425,0.0201 0.97785,-5.25098 1.36357,-11.71348 z M 18.361626,129.5 c 0.316583,-0.825 1.213052,-1.5 1.992155,-1.5 0.779102,0 3.694031,-0.73554 6.47762,-1.63454 l 5.061071,-1.63455 0.303764,-12.91297 L 32.5,98.904971 30.047565,99.522346 c -1.348839,0.339555 -4.114141,1.823434 -6.145116,3.297514 C 9.1921029,113.49659 9.3774658,113.16444 13.477871,121.5 c 1.352771,2.75 2.473657,6.0125 2.490857,7.25 0.03542,2.54833 1.523802,3.01483 2.392898,0.75 z M 74.164419,80.511484 c 0.513142,-2.845896 3.663623,-3.15055 4.662308,-0.450849 0.798878,2.159574 0.874834,2.13548 3.386886,-1.074327 C 85.169155,75.209825 88,75.445782 88,79.468615 88,82.50179 89.517253,82.770539 91,80 c 1.255388,-2.345713 4.809175,-2.660856 5.638374,-0.5 0.773683,2.016186 1.973266,1.88836 4.322196,-0.460568 1.77935,-1.779347 1.90385,-2.891529 1.34697,-12.032323 -0.40355,-6.623964 -0.98912,-9.948297 -1.71057,-9.711104 -0.603333,0.198358 -1.244374,1.36542 -1.424534,2.593472 -0.433786,2.956872 -2.806392,3.751764 -5.073733,1.699848 -1.714332,-1.551449 -1.928949,-1.497348 -3.485808,0.878719 C 89.380946,64.348237 88.086416,65 85.583936,65 c -2.13433,0 -3.590016,0.573461 -3.970127,1.564014 -0.330092,0.860207 -1.390737,1.466048 -2.356989,1.346313 -0.966251,-0.119736 -2.59448,0.143851 -3.618287,0.585748 -1.191672,0.514352 -2.842792,0.223767 -4.588729,-0.807583 C 69.138623,66.559529 68.007179,66.392821 67.26863,67.13137 66.530081,67.869919 65.603804,67.85833 64.173101,67.09264 63.050211,66.491688 61.227416,66 60.122445,66 c -1.10497,0 -2.646302,-0.909823 -3.425181,-2.021828 -1.250772,-1.785727 -1.563632,-1.844115 -2.679148,-0.5 C 52.249205,65.609579 49.910316,65.373051 49.289749,63 48.710687,60.785662 46.994672,60.405328 45.287132,62.112868 43.833756,63.566244 42,62.387562 42,60 c 0,-3.059725 -1.788314,-3.251352 -2.414507,-0.258726 -1.017413,4.862295 -0.407556,12.161511 1.122181,13.43108 1.13714,0.943742 1.882511,0.940163 3.414204,-0.0164 C 46.653546,71.574906 48,72.46304 48,75.714005 c 0,2.451592 0.101708,2.503926 1.828741,0.940983 2.545097,-2.303282 4.025207,-2.069644 5.353213,0.845012 1.284013,2.818102 1.888408,3.029638 3.643005,1.275041 0.947163,-0.947163 1.653521,-0.957319 3.114722,-0.04478 1.502078,0.938064 2.137527,0.881639 3.097486,-0.27504 1.963279,-2.365607 3.759561,-1.685839 5.557552,2.103146 1.708008,3.599358 2.915107,3.583506 3.5697,-0.04688 z m 7.411694,-54.356056 4.570211,-2.844572 -7.43978,-7.76018 -7.43978,-7.7601812 -4.976937,4.8547522 C 61.295382,17.517079 56,24.077193 56,25.392665 c 0,1.694375 7.083566,3.532201 13.752951,3.568193 6.271649,0.03385 7.871286,-0.34572 11.823162,-2.80543 z"
       id="path2898" />
    <path
       style="fill:#ee770e"
       d="m 61.531703,196.0513 c -0.322483,-0.52179 -0.09931,-2.88429 0.495944,-5.25 0.595252,-2.36572 0.945044,-7.2263 0.777315,-10.8013 L 62.5,173.5 60,177.73282 c -2.523891,4.27326 -4.422574,5.74208 -6.090242,4.71141 -1.57509,-0.97346 -0.990483,-8.8965 1.106063,-14.99022 1.108702,-3.22249 1.888234,-6.24185 1.732293,-6.70967 -0.15594,-0.46782 -2.385064,0.78671 -4.953608,2.78784 -6.637849,5.1715 -8.318429,4.5114 -8.202998,-3.22202 0.09548,-6.39701 1.497217,-11.01361 4.67799,-15.40695 2.185562,-3.01874 2.027673,-8.82483 -0.269498,-9.9103 -0.825,-0.38983 -2.939466,-1.45955 -4.698813,-2.37715 -5.122446,-2.67164 -11.206236,-4.57841 -11.758244,-3.68524 -0.279921,0.45292 -2.429096,1.33006 -4.775945,1.9492 C 21.776303,132.19634 17,136.08403 17,138.82959 c 0,3.18985 -2.414531,4.29685 -8.6652997,3.97283 L 2.5006547,142.5 1.6961819,136.5 C 0.51476761,127.68866 1.3399308,115.08898 3.3498248,111.25 4.6391022,108.78743 5.7155861,108 7.7928559,108 c 1.786277,0 4.4776601,-1.49225 7.7243201,-4.28278 6.492408,-5.580281 9.232075,-7.262204 14.305121,-8.782125 L 34,93.683425 34.010317,84.591712 C 34.028094,68.927141 35.903985,52.052349 38.467126,44.5 42.713373,31.988338 45.439546,27.71215 56.072823,16.884271 61.681525,11.172922 66.936364,5.4875 67.750242,4.25 68.56412,3.0125 69.773808,2 70.438437,2 c 1.848585,0 17.305781,16.463441 24.322122,25.905462 3.435342,4.623005 6.731211,10.248005 7.324161,12.5 0.59294,2.251996 1.64778,4.994538 2.34407,6.094538 0.70762,1.117886 1.55075,7.072153 1.91161,13.5 0.35509,6.325 0.94213,16.165808 1.30455,21.868462 l 0.65893,10.368462 6.7592,4.372505 c 3.71756,2.404878 7.81169,4.825491 9.09806,5.379151 1.28637,0.55365 3.01386,1.42525 3.83886,1.93688 0.825,0.51163 2.2181,1.14695 3.09577,1.41182 0.87768,0.26487 3.02825,2.64423 4.77906,5.28746 l 3.18327,4.80587 -0.27905,12.03469 L 138.5,139.5 l -6.76373,0.296 c -5.36811,0.23493 -6.88615,-0.023 -7.35699,-1.25 -0.32629,-0.8503 -1.5045,-1.546 -2.61823,-1.546 -2.33711,0 -8.09654,-3.25081 -11.84131,-6.68363 l -2.58026,-2.36531 -4.66974,2.60996 C 100.10138,131.9965 98,133.75152 98,134.46106 c 0,1.33677 3.90075,10.76257 6.65376,16.07819 2.50872,4.84393 1.5164,7.00663 -3.08524,6.7241 -3.665364,-0.22505 -3.773787,-0.14765 -2.211429,1.57874 0.903599,0.99846 1.655429,2.22996 1.670729,2.73665 0.0153,0.50669 1.3653,2.68892 3,4.8494 1.6347,2.16048 2.97218,4.50929 2.97218,5.21958 0,0.7103 0.92392,2.93641 2.05316,4.94693 4.18355,7.44845 0.64502,10.37402 -7.67567,6.34604 -2.507233,-1.21373 -6.574901,-2.43404 -9.039264,-2.71181 l -4.48066,-0.50504 0.805119,3.88808 c 0.442816,2.13844 0.812364,5.91308 0.821217,8.38808 0.01454,4.06599 -0.225017,4.52618 -2.483902,4.77144 -1.661422,0.18039 -4.267818,-1.07748 -7.770286,-3.75 C 76.331056,190.80965 73.743556,189 73.479714,189 73.215871,189 73,189.81537 73,190.81194 c 0,3.76192 -9.655227,8.17297 -11.468297,5.23936 z M 85.41493,189.25 c -0.342746,-1.5125 -1.243556,-4.94303 -2.0018,-7.62341 C 81.830606,176.03241 82.164932,175 85.559017,175 86.901558,175 88,174.55 88,174 c 0,-0.55 0.5625,-0.8875 1.25,-0.75 0.844573,0.16891 1.238646,-1.1045 1.214995,-3.92614 -0.01925,-2.29688 0.224834,-4.01556 0.542414,-3.81928 0.317581,0.19627 0.650913,-0.61879 0.740739,-1.81125 0.132773,-1.76261 -0.02768,-1.88993 -0.857921,-0.68072 -0.807308,1.17581 -0.901794,1.05743 -0.451044,-0.56507 0.313608,-1.12885 -0.07478,-2.92885 -0.863073,-4 -1.417465,-1.92606 -1.441555,-1.92615 -2.1846,-0.008 -0.466516,1.2046 -0.30405,2.08912 0.42858,2.33333 1.144064,0.38136 1.740135,8.22664 0.625046,8.22664 -0.799948,0 -9.504814,-3.82606 -12.425656,-5.46147 -2.317116,-1.29737 -2.56144,-1.21263 -3.708911,1.28631 l -1.228392,2.67516 0.599588,-3 c 0.329773,-1.65 0.692175,-3.11839 0.805338,-3.26309 0.113162,-0.1447 3.649858,1.30643 7.859323,3.22475 L 88,167.94951 88,165.4217 c 0,-1.39029 -1.125,-4.18339 -2.5,-6.20689 C 84.125,157.19132 83,154.61221 83,153.48347 83,150.91503 87.733553,148 91.904292,148 c 1.702639,0 3.072482,-0.3375 3.044094,-0.75 -0.02839,-0.4125 -1.92276,-2.25031 -4.209717,-4.08401 -3.783806,-3.0339 -4.566803,-3.27419 -8.698386,-2.66933 -6.499257,0.95148 -17.172092,1.00359 -19.692377,0.0961 -1.777351,-0.63994 -2.608021,-0.10603 -4.770423,3.06616 -2.341259,3.43457 -2.430984,3.8716 -0.847907,4.12996 6.279697,1.02486 6.270364,1.01596 6.271645,5.98012 l 0.0012,4.73095 2.365128,-2.75 C 68.906205,151.63553 70,152.2519 70,158.36043 c 0,2.94823 0.286166,7.44823 0.635924,10 0.434457,3.16971 0.276053,4.63957 -0.5,4.63957 C 69.36646,173 69,169.88521 69,163.34501 69,153.75337 68.98688,153.7019 67,155.5 c -2.237878,2.02525 -2.628171,3.62984 -0.790514,3.25 0.665217,-0.1375 1.279459,0.77674 1.364982,2.03165 0.08552,1.25491 -0.07984,2.04631 -0.367476,1.75867 -0.287636,-0.28763 -1.239378,0.0279 -2.114983,0.70112 -1.195776,0.91943 -1.156454,0.71101 0.157991,-0.83741 0.9625,-1.13383 1.75,-2.32376 1.75,-2.64429 0,-0.32052 -0.7875,-0.46295 -1.75,-0.3165 -1.192832,0.18149 -1.715604,1.10847 -1.641965,2.91152 0.07964,1.94997 -0.380329,2.64524 -1.75,2.64524 -1.021919,0 -1.86418,0.3375 -1.87169,0.75 -0.0075,0.4125 -0.302451,1.82926 -0.655425,3.14835 l -0.64177,2.39835 3.405425,-1.89835 c 1.872984,-1.04409 3.592925,-2.01085 3.822092,-2.14835 0.229166,-0.1375 0.15571,-0.51096 -0.163236,-0.8299 -0.318947,-0.31895 -1.751611,0.18783 -3.183698,1.12617 -2.404701,1.57562 -2.554815,1.57843 -1.963225,0.0368 0.352313,-0.91811 0.885959,-1.42391 1.185879,-1.12399 0.29992,0.29992 1.340972,-0.17475 2.313448,-1.05483 1.990073,-1.80099 4.328552,-0.99847 3.156546,1.08327 -1.102975,1.95912 -0.346144,24.68231 0.79852,23.97487 C 68.577405,190.14314 69,188.60667 69,187.04797 c 0,-3.48612 1.886902,-4.33809 5.479656,-2.47415 1.500675,0.77856 3.201194,1.12343 3.778931,0.76636 0.585768,-0.36202 0.756665,-0.17388 0.386335,0.42533 -0.618214,1.00029 4.914983,6.19876 6.62413,6.2234 0.422979,0.006 0.488624,-1.22641 0.145878,-2.73891 z m -3.206668,-0.92619 c -1.002288,-0.40216 -1.026613,-0.83776 -0.108556,-1.94395 0.968825,-1.16736 0.854349,-1.29946 -0.631871,-0.72914 -1.431504,0.54932 -1.675129,0.33186 -1.152898,-1.02905 0.394027,-1.02682 0.261862,-1.47815 -0.326391,-1.11459 -0.5437,0.33602 -0.995437,0.0219 -1.003859,-0.69806 -0.01156,-0.98848 -0.237767,-0.95746 -0.923784,0.12668 -0.749483,1.18444 -1.182049,1.20865 -2.471702,0.13833 -0.920261,-0.76375 -2.596838,-1.03795 -4.076215,-0.66665 -2.392308,0.60044 -2.511895,0.42572 -2.490277,-3.63833 0.02022,-3.80048 0.376935,-4.44616 3.25,-5.88269 2.22698,-1.11349 3.123898,-2.19833 2.893717,-3.5 -0.268756,-1.51981 -0.08416,-1.64347 0.95,-0.63636 0.705966,0.6875 1.743702,1.25 2.30608,1.25 0.562379,0 0.003,-0.71406 -1.242958,-1.58679 -1.896862,-1.32862 -2.543208,-1.3721 -3.972506,-0.26724 -1.422555,1.09965 -1.403248,0.96258 0.115853,-0.82249 1.480604,-1.73984 2.36641,-1.98618 4.717429,-1.31192 3.995133,1.14579 5.101245,1.95036 4.350758,3.16467 -0.407056,0.65863 0.112975,0.79856 1.422785,0.38285 1.485493,-0.47148 2.371667,-0.0809 3.160413,1.39286 0.602848,1.12643 0.967755,2.09937 0.810904,2.16208 -3.23609,1.29383 -7.608298,-0.0432 -4.760184,-1.45569 0.56375,-0.27958 0.45125,-0.39011 -0.25,-0.24562 -0.70125,0.14449 -1.288516,1.21176 -1.305036,2.3717 -0.01652,1.15995 -0.426167,2.47048 -0.910326,2.91229 -0.490406,0.44752 -0.564825,0.25474 -0.168026,-0.43525 0.472612,-0.82181 0.211335,-1.04632 -0.776532,-0.66724 C 78.224639,176.12778 78.433615,179 79.862877,179 c 0.855513,0 3.584847,6.01845 3.741334,8.25 0.06749,0.9625 0.07166,1.71447 0.0093,1.67105 -0.0624,-0.0434 -0.694746,-0.31218 -1.405202,-0.59724 z M 88.638374,171.5 C 88.321791,170.675 88.498646,170 89.031385,170 89.564123,170 90,170.675 90,171.5 c 0,0.825 -0.176855,1.5 -0.393011,1.5 -0.216156,0 -0.652033,-0.675 -0.968615,-1.5 z M 105,178.5 c 0,-0.825 -0.45,-1.5 -1,-1.5 -0.55,0 -1,-1.04484 -1,-2.32186 0,-1.27702 -1.33748,-4.08952 -2.97218,-6.25 -1.634699,-2.16048 -2.984699,-4.40645 -3,-4.99105 C 97.012519,162.85249 95.65,161.0808 94,159.5 c -1.65,-1.5808 -3,-3.51748 -3,-4.30372 0,-0.94137 -0.688989,-1.24937 -2.017591,-0.90193 -1.109675,0.29019 -2.684675,-0.13947 -3.5,-0.9548 C 84.17253,152.02967 84,152.08398 84,153.80613 c 0,2.71785 2.556637,4.76741 3.669278,2.94152 0.676644,-1.11039 1.155304,-1.02794 2.580722,0.44455 0.9625,0.99429 1.463636,1.8078 1.113636,1.8078 -0.35,0 0.542975,1.17934 1.984389,2.62075 1.441413,1.44142 2.395248,2.98563 2.119633,3.43158 -0.275615,0.44595 0.339102,1.40412 1.366037,2.12925 1.026935,0.72513 1.75133,2.09196 1.609766,3.03741 -0.141565,0.94544 0.03824,1.67965 0.399574,1.63158 2.601615,-0.34615 3.351895,0.20963 2.183495,1.61746 -0.67009,0.80742 -1.681443,1.36992 -2.247442,1.25 -2.003657,-0.42451 -1.829434,2.03554 0.1814,2.56139 1.123252,0.29373 1.809312,0.15712 1.524582,-0.30358 -0.28473,-0.4607 0.0522,-1.16588 0.74862,-1.56707 0.69647,-0.40118 0.94464,-0.37311 0.55149,0.0624 -0.86884,0.96242 0.90301,4.52884 2.25,4.52884 0.53065,0 0.96482,-0.675 0.96482,-1.5 z m -9.26101,-3.74961 c 0.681444,-0.53735 0.918338,-1.48852 0.52643,-2.1137 C 95.873513,172.01151 95.540968,170.825 95.526431,170 c -0.01587,-0.90086 -0.765512,-1.37343 -1.876783,-1.18312 -1.246265,0.21343 -1.603912,-0.0819 -1.095492,-0.90451 0.486195,-0.78668 0.338148,-0.96384 -0.415959,-0.49778 -1.572514,0.97187 -0.305822,2.86371 1.462954,2.18497 C 94.370518,169.30432 95,169.49865 95,170.03138 c 0,0.53274 -0.7875,1.00025 -1.75,1.03891 -1.432383,0.0575 -1.477757,0.19365 -0.25,0.75 2.021461,0.91601 2.563772,3.61003 0.572919,2.84607 -0.829878,-0.31846 -1.728485,-0.22367 -1.996905,0.21065 -0.702372,1.13646 2.692121,1.03321 4.162976,-0.12662 z M 61.912084,157.75 C 61.695002,150.71114 60.808233,149 57.377555,149 55.59462,149 55,149.55021 55,151.2 c 0,1.74242 -0.256151,1.94385 -1.231547,0.96845 -0.975396,-0.97539 -0.745876,-2.14704 1.10351,-5.63317 2.181868,-4.11286 2.22986,-4.55182 0.731548,-6.69096 C 54.004722,137.56173 54,137.56555 54,141.14264 c 0,1.9732 -0.817853,4.66083 -1.817451,5.9725 C 49.431857,150.7246 46.061259,161 47.627956,161 c 1.76927,0 9.440939,-7.37808 8.964003,-8.62096 -0.408622,-1.06485 0.04014,-1.01098 1.93815,0.23265 C 60.5987,153.96708 61,155.02372 61,159.11501 61,161.80175 61.248588,164 61.552418,164 c 0.30383,0 0.46568,-2.8125 0.359666,-6.25 z m -12.479755,-1.06575 c -0.277696,-0.72367 0.116167,-2.51286 0.875251,-3.976 l 1.380152,-2.66024 1.274082,2.38064 c 1.497079,2.79732 0.659234,4.7469 -1.657884,3.85774 -1.090929,-0.41863 -1.392291,-0.23838 -0.908958,0.54367 0.397684,0.64347 0.457381,1.16994 0.13266,1.16994 -0.324721,0 -0.817607,-0.59209 -1.095303,-1.31575 z m 9.548672,-5.20714 c -1.056784,-1.27335 -0.994917,-1.41968 0.377555,-0.89301 C 60.26135,150.93053 61,151.61583 61,152.10699 c 0,1.28596 -0.578873,1.10536 -2.018999,-0.62988 z M 92,150.53239 c 0.825,0.0423 2.766795,0.61475 4.3151,1.27222 4.07142,1.72887 4.86439,1.486 3.443374,-1.05461 C 99.066313,149.5125 98.275,148.275 98,148 c -0.275,-0.275 -0.64805,-1.4 -0.829001,-2.5 -0.18095,-1.1 -0.96845,-2.99667 -1.75,-4.21482 C 94.63945,140.06703 94,138.37953 94,137.53518 94,136.69083 93.745416,136 93.434259,136 c -0.523309,0 -4.531918,1.93507 -5.249602,2.53413 -0.387438,0.3234 5.5502,6.46587 6.250255,6.46587 0.276275,0 0.219743,-0.7875 -0.125626,-1.75 -0.34537,-0.9625 -0.317135,-1.47339 0.06274,-1.13531 0.37988,0.33808 0.884582,1.6215 1.121561,2.85203 0.236979,1.23054 0.908044,2.81229 1.491255,3.51502 0.842881,1.01561 0.134375,1.17331 -3.454161,0.76883 -2.960149,-0.33365 -5.067166,-0.0502 -6.119564,0.82319 -1.460853,1.2124 -1.439122,1.39135 0.241929,1.99219 1.030769,0.36842 2.067904,0.15846 2.34695,-0.47512 0.275,-0.6244 1.175,-1.10069 2,-1.05844 z M 91.5,141 c -0.339919,-0.55 0.08352,-1 0.940983,-1 C 93.298442,140 94,140.45 94,141 c 0,0.55 -0.423442,1 -0.940983,1 -0.517541,0 -1.219098,-0.45 -1.559017,-1 z M 90,138.60699 c 0,-0.21616 0.698372,-0.661 1.551938,-0.98855 0.889925,-0.34149 1.291322,-0.17385 0.940983,0.39301 C 91.905663,138.96166 90,139.4169 90,138.60699 z M 58.5,140 c 0.339919,-0.55 -0.110081,-1 -1,-1 -0.889919,0 -1.339919,0.45 -1,1 0.339919,0.55 0.789919,1 1,1 0.210081,0 0.660081,-0.45 1,-1 z m 66.02584,-18.75 c 0.38571,-6.4625 0.71168,-12.2 0.72436,-12.75 0.0127,-0.55 -2.40092,-2.35437 -5.36357,-4.00971 -2.96264,-1.65534 -6.94079,-4.00118 -8.84032,-5.212979 -1.89953,-1.211797 -3.54908,-2.107427 -3.66568,-1.990289 -0.1166,0.117138 0.29397,6.625478 0.91238,14.462978 0.75467,9.56451 1.5087,14.25 2.29323,14.25 0.64288,0 1.74539,0.69466 2.45003,1.5437 1.15935,1.39693 8.50881,5.33062 10.126,5.41978 0.36425,0.0201 0.97785,-5.25098 1.36357,-11.71348 z M 18.361626,129.5 c 0.316583,-0.825 1.213052,-1.5 1.992155,-1.5 0.779102,0 3.694031,-0.73554 6.47762,-1.63454 l 5.061071,-1.63455 0.303764,-12.91297 L 32.5,98.904971 30.047565,99.522346 c -1.348839,0.339555 -4.114141,1.823434 -6.145116,3.297514 C 9.1921029,113.49659 9.3774658,113.16444 13.477871,121.5 c 1.352771,2.75 2.473657,6.0125 2.490857,7.25 0.03542,2.54833 1.523802,3.01483 2.392898,0.75 z M 74.164419,80.511484 c 0.513142,-2.845896 3.663623,-3.15055 4.662308,-0.450849 0.798878,2.159574 0.874834,2.13548 3.386886,-1.074327 C 85.169155,75.209825 88,75.445782 88,79.468615 88,82.50179 89.517253,82.770539 91,80 c 1.255388,-2.345713 4.809175,-2.660856 5.638374,-0.5 0.773683,2.016186 1.973266,1.88836 4.322196,-0.460568 1.77935,-1.779347 1.90385,-2.891529 1.34697,-12.032323 -0.40355,-6.623964 -0.98912,-9.948297 -1.71057,-9.711104 -0.603333,0.198358 -1.244374,1.36542 -1.424534,2.593472 -0.433786,2.956872 -2.806392,3.751764 -5.073733,1.699848 -1.714332,-1.551449 -1.928949,-1.497348 -3.485808,0.878719 C 89.380946,64.348237 88.086416,65 85.583936,65 c -2.13433,0 -3.590016,0.573461 -3.970127,1.564014 -0.330092,0.860207 -1.390737,1.466048 -2.356989,1.346313 -0.966251,-0.119736 -2.59448,0.143851 -3.618287,0.585748 -1.191672,0.514352 -2.842792,0.223767 -4.588729,-0.807583 C 69.138623,66.559529 68.007179,66.392821 67.26863,67.13137 66.530081,67.869919 65.603804,67.85833 64.173101,67.09264 63.050211,66.491688 61.227416,66 60.122445,66 c -1.10497,0 -2.646302,-0.909823 -3.425181,-2.021828 -1.250772,-1.785727 -1.563632,-1.844115 -2.679148,-0.5 C 52.249205,65.609579 49.910316,65.373051 49.289749,63 48.710687,60.785662 46.994672,60.405328 45.287132,62.112868 43.833756,63.566244 42,62.387562 42,60 c 0,-3.059725 -1.788314,-3.251352 -2.414507,-0.258726 -1.017413,4.862295 -0.407556,12.161511 1.122181,13.43108 1.13714,0.943742 1.882511,0.940163 3.414204,-0.0164 C 46.653546,71.574906 48,72.46304 48,75.714005 c 0,2.451592 0.101708,2.503926 1.828741,0.940983 2.545097,-2.303282 4.025207,-2.069644 5.353213,0.845012 1.284013,2.818102 1.888408,3.029638 3.643005,1.275041 0.947163,-0.947163 1.653521,-0.957319 3.114722,-0.04478 1.502078,0.938064 2.137527,0.881639 3.097486,-0.27504 1.963279,-2.365607 3.759561,-1.685839 5.557552,2.103146 1.708008,3.599358 2.915107,3.583506 3.5697,-0.04688 z m 7.411694,-54.356056 4.570211,-2.844572 -7.43978,-7.76018 -7.43978,-7.7601812 -4.976937,4.8547522 C 61.295382,17.517079 56,24.077193 56,25.392665 c 0,1.694375 7.083566,3.532201 13.752951,3.568193 6.271649,0.03385 7.871286,-0.34572 11.823162,-2.80543 z"
       id="path2896" />
    <path
       style="fill:#f70204"
       d="m 61.531703,196.0513 c -0.322483,-0.52179 -0.09931,-2.88429 0.495944,-5.25 0.595252,-2.36572 0.945044,-7.2263 0.777315,-10.8013 L 62.5,173.5 60,177.73282 c -2.523891,4.27326 -4.422574,5.74208 -6.090242,4.71141 -1.57509,-0.97346 -0.990483,-8.8965 1.106063,-14.99022 1.108702,-3.22249 1.888234,-6.24185 1.732293,-6.70967 -0.15594,-0.46782 -2.385064,0.78671 -4.953608,2.78784 -6.637849,5.1715 -8.318429,4.5114 -8.202998,-3.22202 0.09548,-6.39701 1.497217,-11.01361 4.67799,-15.40695 2.185562,-3.01874 2.027673,-8.82483 -0.269498,-9.9103 -0.825,-0.38983 -2.939466,-1.45955 -4.698813,-2.37715 -5.122446,-2.67164 -11.206236,-4.57841 -11.758244,-3.68524 -0.279921,0.45292 -2.429096,1.33006 -4.775945,1.9492 C 21.776303,132.19634 17,136.08403 17,138.82959 c 0,3.18985 -2.414531,4.29685 -8.6652997,3.97283 L 2.5006547,142.5 1.6961819,136.5 C 0.51476761,127.68866 1.3399308,115.08898 3.3498248,111.25 4.6391022,108.78743 5.7155861,108 7.7928559,108 c 1.786277,0 4.4776601,-1.49225 7.7243201,-4.28278 6.492408,-5.580281 9.232075,-7.262204 14.305121,-8.782125 L 34,93.683425 34.010317,84.591712 C 34.028094,68.927141 35.903985,52.052349 38.467126,44.5 42.713373,31.988338 45.439546,27.71215 56.072823,16.884271 61.681525,11.172922 66.936364,5.4875 67.750242,4.25 68.56412,3.0125 69.773808,2 70.438437,2 c 1.848585,0 17.305781,16.463441 24.322122,25.905462 3.435342,4.623005 6.731211,10.248005 7.324161,12.5 0.59294,2.251996 1.64778,4.994538 2.34407,6.094538 0.70762,1.117886 1.55075,7.072153 1.91161,13.5 0.35509,6.325 0.94213,16.165808 1.30455,21.868462 l 0.65893,10.368462 6.7592,4.372505 c 3.71756,2.404878 7.81169,4.825491 9.09806,5.379151 1.28637,0.55365 3.01386,1.42525 3.83886,1.93688 0.825,0.51163 2.2181,1.14695 3.09577,1.41182 0.87768,0.26487 3.02825,2.64423 4.77906,5.28746 l 3.18327,4.80587 -0.27905,12.03469 L 138.5,139.5 l -6.76373,0.296 c -5.36811,0.23493 -6.88615,-0.023 -7.35699,-1.25 -0.32629,-0.8503 -1.5045,-1.546 -2.61823,-1.546 -2.33711,0 -8.09654,-3.25081 -11.84131,-6.68363 l -2.58026,-2.36531 -4.66974,2.60996 C 100.10138,131.9965 98,133.75152 98,134.46106 c 0,1.33677 3.90075,10.76257 6.65376,16.07819 2.50872,4.84393 1.5164,7.00663 -3.08524,6.7241 -3.665364,-0.22505 -3.773787,-0.14765 -2.211429,1.57874 0.903599,0.99846 1.655429,2.22996 1.670729,2.73665 0.0153,0.50669 1.3653,2.68892 3,4.8494 1.6347,2.16048 2.97218,4.50929 2.97218,5.21958 0,0.7103 0.92392,2.93641 2.05316,4.94693 4.18355,7.44845 0.64502,10.37402 -7.67567,6.34604 -2.507233,-1.21373 -6.574901,-2.43404 -9.039264,-2.71181 l -4.48066,-0.50504 0.805119,3.88808 c 0.442816,2.13844 0.812364,5.91308 0.821217,8.38808 0.01454,4.06599 -0.225017,4.52618 -2.483902,4.77144 -1.661422,0.18039 -4.267818,-1.07748 -7.770286,-3.75 C 76.331056,190.80965 73.743556,189 73.479714,189 73.215871,189 73,189.81537 73,190.81194 c 0,3.76192 -9.655227,8.17297 -11.468297,5.23936 z M 85.41493,189.25 c -0.342746,-1.5125 -1.253226,-4.97559 -2.023288,-7.69576 -0.770298,-2.72101 -1.017196,-5.32869 -0.548867,-5.79702 1.292448,-1.29244 15.874566,0.82755 18.778115,2.73003 3.0126,1.97394 4.30101,1.21859 2.59126,-1.51916 C 103.54547,175.90057 103,174.42619 103,173.69171 c 0,-0.73449 -1.33748,-3.10309 -2.97218,-5.26357 -1.634699,-2.16048 -2.984699,-4.35672 -3,-4.88053 -0.0153,-0.52382 -1.369044,-2.33619 -3.008317,-4.02749 -3.716886,-3.83485 -5.157186,-9.35131 -2.368142,-9.07016 1.016751,0.1025 3.115434,0.71818 4.663739,1.3682 3.94277,1.65526 4.88469,1.51188 3.73232,-0.56816 C 97.96751,147.49574 94,138.24751 94,137.15351 c 0,-1.5551 -2.086048,-1.40347 -4.356873,0.31668 -1.757331,1.33119 -1.636715,1.61602 2.25,5.31336 C 94.151907,144.93228 96,147.21 96,147.84516 c 0,0.6619 -1.600682,1.16904 -3.75,1.18811 -6.2114,0.0551 -10.369541,4.96278 -6.75,7.96673 0.825,0.68469 1.5,1.86479 1.5,2.62244 0,0.75766 0.45,1.37756 1,1.37756 0.55,0 1,1.8 1,4 0,2.2 -0.249689,4 -0.554864,4 -0.774126,0 -9.409858,-3.78895 -12.51276,-5.49 -2.468556,-1.3533 -2.613245,-1.28145 -3.75,1.86219 C 71.532069,167.17059 71,169.62255 71,170.821 71,172.01945 70.55,173 70,173 c -0.595512,0 -1.016439,-3.94376 -1.040641,-9.75 l -0.04064,-9.75 -2.909848,3.40292 c -1.600416,1.8716 -3.095846,4.3466 -3.323177,5.5 C 62.458363,163.55631 62.211082,161.5525 62.136182,157.95 62.061282,154.3475 61.46,150.86 60.8,150.2 c -1.574022,-1.57402 -5.511318,-1.54164 -6.079762,0.05 -0.245536,0.6875 -0.77479,0.94575 -1.176121,0.57388 -0.40133,-0.37187 0.646851,-3.18437 2.329293,-6.25 C 57.555851,141.50825 58.53441,139 58.047985,139 57.561559,139 56.451771,138.72686 55.581787,138.39301 54.32657,137.91134 54,138.50287 54,141.25815 c 0,1.90967 -0.817853,4.54532 -1.817451,5.85699 C 49.391592,150.77743 46.066771,161 47.666591,161 c 0.387583,0 2.888564,-1.84146 5.557736,-4.09214 6.614556,-5.57748 8.172511,-4.87962 7.490312,3.35514 -0.284183,3.43035 -0.865903,7.35346 -1.29271,8.71801 l -0.776014,2.48102 2.757831,-1.807 C 66.313158,166.43825 67,167.71131 67,180.02763 c 0,7.13896 0.356294,10.8702 1,10.47237 0.55,-0.33992 1,-1.94148 1,-3.55902 0,-2.54425 0.370965,-2.93955 2.75,-2.93035 1.690051,0.007 4.677179,1.54418 7.75,3.98937 2.75,2.18831 5.346073,3.98353 5.769052,3.98937 0.422979,0.006 0.488624,-1.22687 0.145878,-2.73937 z m 0.147716,-29.943 C 84.153191,157.2328 83,154.61221 83,153.48347 83,150.91503 87.733553,148 91.904292,148 c 1.702639,0 3.072482,-0.3375 3.044094,-0.75 -0.02839,-0.4125 -1.92276,-2.25031 -4.209717,-4.08401 -3.783806,-3.0339 -4.566803,-3.27419 -8.698386,-2.66933 -6.499257,0.95148 -17.172092,1.00359 -19.692377,0.0961 -1.777351,-0.63994 -2.608021,-0.10603 -4.770423,3.06616 -2.341259,3.43457 -2.430984,3.8716 -0.847907,4.12996 6.279697,1.02486 6.270364,1.01596 6.271645,5.98012 l 0.0012,4.73095 2.365128,-2.75 c 3.668802,-4.26582 4.511329,-3.48791 4.873768,4.5 0.280251,6.17652 0.453312,6.76879 1.16881,4 0.461918,-1.7875 0.950054,-3.25 1.084746,-3.25 0.134693,0 3.565943,1.51484 7.625,3.36631 l 7.380105,3.36631 0.312646,-2.32717 c 0.173249,-1.28958 -0.829941,-4.00864 -2.25,-6.09845 z M 124.52584,121.25 c 0.38571,-6.4625 0.71168,-12.2 0.72436,-12.75 0.0127,-0.55 -2.40092,-2.35437 -5.36357,-4.00971 -2.96264,-1.65534 -6.94079,-4.00118 -8.84032,-5.212979 -1.89953,-1.211797 -3.54908,-2.107427 -3.66568,-1.990289 -0.1166,0.117138 0.29397,6.625478 0.91238,14.462978 0.75467,9.56451 1.5087,14.25 2.29323,14.25 0.64288,0 1.74539,0.69466 2.45003,1.5437 1.15935,1.39693 8.50881,5.33062 10.126,5.41978 0.36425,0.0201 0.97785,-5.25098 1.36357,-11.71348 z M 18.361626,129.5 c 0.316583,-0.825 1.213052,-1.5 1.992155,-1.5 0.779102,0 3.694031,-0.73554 6.47762,-1.63454 l 5.061071,-1.63455 0.303764,-12.91297 L 32.5,98.904971 30.047565,99.522346 c -1.348839,0.339555 -4.114141,1.823434 -6.145116,3.297514 C 9.1921029,113.49659 9.3774658,113.16444 13.477871,121.5 c 1.352771,2.75 2.473657,6.0125 2.490857,7.25 0.03542,2.54833 1.523802,3.01483 2.392898,0.75 z M 74.164419,80.511484 c 0.513142,-2.845896 3.663623,-3.15055 4.662308,-0.450849 0.798878,2.159574 0.874834,2.13548 3.386886,-1.074327 C 85.169155,75.209825 88,75.445782 88,79.468615 88,82.50179 89.517253,82.770539 91,80 c 1.255388,-2.345713 4.809175,-2.660856 5.638374,-0.5 0.773683,2.016186 1.973266,1.88836 4.322196,-0.460568 1.77935,-1.779347 1.90385,-2.891529 1.34697,-12.032323 -0.40355,-6.623964 -0.98912,-9.948297 -1.71057,-9.711104 -0.603333,0.198358 -1.244374,1.36542 -1.424534,2.593472 -0.433786,2.956872 -2.806392,3.751764 -5.073733,1.699848 -1.714332,-1.551449 -1.928949,-1.497348 -3.485808,0.878719 C 89.380946,64.348237 88.086416,65 85.583936,65 c -2.13433,0 -3.590016,0.573461 -3.970127,1.564014 -0.330092,0.860207 -1.390737,1.466048 -2.356989,1.346313 -0.966251,-0.119736 -2.59448,0.143851 -3.618287,0.585748 -1.191672,0.514352 -2.842792,0.223767 -4.588729,-0.807583 C 69.138623,66.559529 68.007179,66.392821 67.26863,67.13137 66.530081,67.869919 65.603804,67.85833 64.173101,67.09264 63.050211,66.491688 61.227416,66 60.122445,66 c -1.10497,0 -2.646302,-0.909823 -3.425181,-2.021828 -1.250772,-1.785727 -1.563632,-1.844115 -2.679148,-0.5 C 52.249205,65.609579 49.910316,65.373051 49.289749,63 48.710687,60.785662 46.994672,60.405328 45.287132,62.112868 43.833756,63.566244 42,62.387562 42,60 c 0,-3.059725 -1.788314,-3.251352 -2.414507,-0.258726 -1.017413,4.862295 -0.407556,12.161511 1.122181,13.43108 1.13714,0.943742 1.882511,0.940163 3.414204,-0.0164 C 46.653546,71.574906 48,72.46304 48,75.714005 c 0,2.451592 0.101708,2.503926 1.828741,0.940983 2.545097,-2.303282 4.025207,-2.069644 5.353213,0.845012 1.284013,2.818102 1.888408,3.029638 3.643005,1.275041 0.947163,-0.947163 1.653521,-0.957319 3.114722,-0.04478 1.502078,0.938064 2.137527,0.881639 3.097486,-0.27504 1.963279,-2.365607 3.759561,-1.685839 5.557552,2.103146 1.708008,3.599358 2.915107,3.583506 3.5697,-0.04688 z m 7.411694,-54.356056 4.570211,-2.844572 -7.43978,-7.76018 -7.43978,-7.7601812 -4.976937,4.8547522 C 61.295382,17.517079 56,24.077193 56,25.392665 c 0,1.694375 7.083566,3.532201 13.752951,3.568193 6.271649,0.03385 7.871286,-0.34572 11.823162,-2.80543 z"
       id="path2894" />
    <path
       style="fill:#0705d0"
       d="m 61.531703,196.0513 c -0.322483,-0.52179 -0.09931,-2.88429 0.495944,-5.25 0.595252,-2.36572 0.945044,-7.2263 0.777315,-10.8013 L 62.5,173.5 60,177.73282 c -2.523891,4.27326 -4.422574,5.74208 -6.090242,4.71141 -1.57509,-0.97346 -0.990483,-8.8965 1.106063,-14.99022 1.108702,-3.22249 1.888234,-6.24185 1.732293,-6.70967 -0.15594,-0.46782 -2.385064,0.78671 -4.953608,2.78784 -6.637849,5.1715 -8.318429,4.5114 -8.202998,-3.22202 0.09548,-6.39701 1.497217,-11.01361 4.67799,-15.40695 2.185562,-3.01874 2.027673,-8.82483 -0.269498,-9.9103 -0.825,-0.38983 -2.939466,-1.45955 -4.698813,-2.37715 -5.122446,-2.67164 -11.206236,-4.57841 -11.758244,-3.68524 -0.279921,0.45292 -2.429096,1.33006 -4.775945,1.9492 C 21.776303,132.19634 17,136.08403 17,138.82959 c 0,3.18985 -2.414531,4.29685 -8.6652997,3.97283 L 2.5006547,142.5 1.6961819,136.5 C 0.51476761,127.68866 1.3399308,115.08898 3.3498248,111.25 4.6391022,108.78743 5.7155861,108 7.7928559,108 c 1.786277,0 4.4776601,-1.49225 7.7243201,-4.28278 6.492408,-5.580281 9.232075,-7.262204 14.305121,-8.782125 L 34,93.683425 34.010317,84.591712 C 34.028094,68.927141 35.903985,52.052349 38.467126,44.5 42.713373,31.988338 45.439546,27.71215 56.072823,16.884271 61.681525,11.172922 66.936364,5.4875 67.750242,4.25 68.56412,3.0125 69.773808,2 70.438437,2 c 1.848585,0 17.305781,16.463441 24.322122,25.905462 3.435342,4.623005 6.731211,10.248005 7.324161,12.5 0.59294,2.251996 1.64778,4.994538 2.34407,6.094538 0.70762,1.117886 1.55075,7.072153 1.91161,13.5 0.35509,6.325 0.94213,16.165808 1.30455,21.868462 l 0.65893,10.368462 6.7592,4.372505 c 3.71756,2.404878 7.81169,4.825491 9.09806,5.379151 1.28637,0.55365 3.01386,1.42525 3.83886,1.93688 0.825,0.51163 2.2181,1.14695 3.09577,1.41182 0.87768,0.26487 3.02825,2.64423 4.77906,5.28746 l 3.18327,4.80587 -0.27905,12.03469 L 138.5,139.5 l -6.76373,0.296 c -5.36811,0.23493 -6.88615,-0.023 -7.35699,-1.25 -0.32629,-0.8503 -1.5045,-1.546 -2.61823,-1.546 -2.33711,0 -8.09654,-3.25081 -11.84131,-6.68363 l -2.58026,-2.36531 -4.66974,2.60996 C 100.10138,131.9965 98,133.75152 98,134.46106 c 0,1.33677 3.90075,10.76257 6.65376,16.07819 2.50872,4.84393 1.5164,7.00663 -3.08524,6.7241 -3.665364,-0.22505 -3.773787,-0.14765 -2.211429,1.57874 0.903599,0.99846 1.655429,2.22996 1.670729,2.73665 0.0153,0.50669 1.3653,2.68892 3,4.8494 1.6347,2.16048 2.97218,4.50929 2.97218,5.21958 0,0.7103 0.92392,2.93641 2.05316,4.94693 4.18355,7.44845 0.64502,10.37402 -7.67567,6.34604 -2.507233,-1.21373 -6.574901,-2.43404 -9.039264,-2.71181 l -4.48066,-0.50504 0.805119,3.88808 c 0.442816,2.13844 0.812364,5.91308 0.821217,8.38808 0.01454,4.06599 -0.225017,4.52618 -2.483902,4.77144 -1.661422,0.18039 -4.267818,-1.07748 -7.770286,-3.75 C 76.331056,190.80965 73.743556,189 73.479714,189 73.215871,189 73,189.81537 73,190.81194 c 0,3.76192 -9.655227,8.17297 -11.468297,5.23936 z M 85.41493,189.25 c -0.342746,-1.5125 -1.253226,-4.97559 -2.023288,-7.69576 -0.770298,-2.72101 -1.017196,-5.32869 -0.548867,-5.79702 1.292448,-1.29244 15.874566,0.82755 18.778115,2.73003 3.0126,1.97394 4.30101,1.21859 2.59126,-1.51916 C 103.54547,175.90057 103,174.42619 103,173.69171 c 0,-0.73449 -1.33748,-3.10309 -2.97218,-5.26357 -1.634699,-2.16048 -2.984699,-4.35672 -3,-4.88053 -0.0153,-0.52382 -1.369044,-2.33619 -3.008317,-4.02749 -3.716886,-3.83485 -5.157186,-9.35131 -2.368142,-9.07016 1.016751,0.1025 3.115434,0.71818 4.663739,1.3682 3.94277,1.65526 4.88469,1.51188 3.73232,-0.56816 C 97.96751,147.49574 94,138.24751 94,137.15351 c 0,-1.5551 -2.086048,-1.40347 -4.356873,0.31668 -1.757331,1.33119 -1.636715,1.61602 2.25,5.31336 C 94.151907,144.93228 96,147.21 96,147.84516 c 0,0.6619 -1.600682,1.16904 -3.75,1.18811 -6.2114,0.0551 -10.369541,4.96278 -6.75,7.96673 0.825,0.68469 1.5,1.86479 1.5,2.62244 0,0.75766 0.45,1.37756 1,1.37756 0.55,0 1,1.8 1,4 0,2.2 -0.249689,4 -0.554864,4 -0.774126,0 -9.409858,-3.78895 -12.51276,-5.49 -2.468556,-1.3533 -2.613245,-1.28145 -3.75,1.86219 C 71.532069,167.17059 71,169.62255 71,170.821 71,172.01945 70.55,173 70,173 c -0.595512,0 -1.016439,-3.94376 -1.040641,-9.75 l -0.04064,-9.75 -2.909848,3.40292 c -1.600416,1.8716 -3.095846,4.3466 -3.323177,5.5 C 62.458363,163.55631 62.211082,161.5525 62.136182,157.95 62.061282,154.3475 61.46,150.86 60.8,150.2 c -1.574022,-1.57402 -5.511318,-1.54164 -6.079762,0.05 -0.245536,0.6875 -0.77479,0.94575 -1.176121,0.57388 -0.40133,-0.37187 0.646851,-3.18437 2.329293,-6.25 C 57.555851,141.50825 58.53441,139 58.047985,139 57.561559,139 56.451771,138.72686 55.581787,138.39301 54.32657,137.91134 54,138.50287 54,141.25815 c 0,1.90967 -0.817853,4.54532 -1.817451,5.85699 C 49.391592,150.77743 46.066771,161 47.666591,161 c 0.387583,0 2.888564,-1.84146 5.557736,-4.09214 6.614556,-5.57748 8.172511,-4.87962 7.490312,3.35514 -0.284183,3.43035 -0.865903,7.35346 -1.29271,8.71801 l -0.776014,2.48102 2.757831,-1.807 C 66.313158,166.43825 67,167.71131 67,180.02763 c 0,7.13896 0.356294,10.8702 1,10.47237 0.55,-0.33992 1,-1.94148 1,-3.55902 0,-2.54425 0.370965,-2.93955 2.75,-2.93035 1.690051,0.007 4.677179,1.54418 7.75,3.98937 2.75,2.18831 5.346073,3.98353 5.769052,3.98937 0.422979,0.006 0.488624,-1.22687 0.145878,-2.73937 z m 0.147716,-29.943 C 84.153191,157.2328 83,154.61221 83,153.48347 83,150.91503 87.733553,148 91.904292,148 c 1.702639,0 3.072482,-0.3375 3.044094,-0.75 -0.02839,-0.4125 -1.92276,-2.25031 -4.209717,-4.08401 -3.783806,-3.0339 -4.566803,-3.27419 -8.698386,-2.66933 -6.499257,0.95148 -17.172092,1.00359 -19.692377,0.0961 -1.777351,-0.63994 -2.608021,-0.10603 -4.770423,3.06616 -2.341259,3.43457 -2.430984,3.8716 -0.847907,4.12996 6.279697,1.02486 6.270364,1.01596 6.271645,5.98012 l 0.0012,4.73095 2.365128,-2.75 c 3.668802,-4.26582 4.511329,-3.48791 4.873768,4.5 0.280251,6.17652 0.453312,6.76879 1.16881,4 0.461918,-1.7875 0.950054,-3.25 1.084746,-3.25 0.134693,0 3.565943,1.51484 7.625,3.36631 l 7.380105,3.36631 0.312646,-2.32717 c 0.173249,-1.28958 -0.829941,-4.00864 -2.25,-6.09845 z m -5.085877,-22.93386 c 2.187223,-0.35469 5.75419,-1.82125 7.926594,-3.25902 2.172404,-1.43777 6.682858,-3.82675 10.023231,-5.30885 l 6.073406,-2.69473 -0.0486,-5.30527 c -0.0267,-2.9179 -0.42984,-11.95311 -0.89587,-20.078247 -0.82179,-14.327833 -0.90351,-14.72213 -2.71193,-13.085529 -1.759594,1.592412 -2.005812,1.554791 -4.371866,-0.668002 l -2.50726,-2.355448 -2.972541,3.440978 C 88.109737,90.395477 87.973584,90.441036 86.509722,88.55887 85.679375,87.491249 85,86.028749 85,85.30887 c 0,-2.148657 -2.721718,-1.481024 -3.322118,0.814911 -0.446839,1.708712 -1.055948,1.998146 -3.116632,1.480948 -1.408687,-0.353558 -2.575562,-0.29676 -2.593053,0.126219 -0.01749,0.422979 -0.676735,1.62101 -1.464983,2.662293 -1.37705,1.819093 -1.549114,1.769133 -4.393343,-1.275624 -1.702498,-1.82253 -3.229472,-2.733115 -3.594034,-2.143241 -1.096447,1.774088 -4.338359,1.117097 -5.967924,-1.209433 -1.341057,-1.914628 -1.849019,-2.057993 -3.543135,-1 C 54.078638,86.592348 52,86.274644 52,84 52,81.374022 49.319701,81.41735 48.48195,84.05687 47.380342,87.527729 44.542615,85.997116 44.189635,81.741683 43.910747,78.379481 43.593894,78 41.06547,78 l -2.813799,0 -0.719637,11.75 c -1.241416,20.26944 -1.354449,33.6857 -0.294876,35 0.554252,0.6875 1.669153,1.25 2.477557,1.25 0.808405,0 2.613991,0.9 4.012414,2 1.398424,1.1 3.381902,2 4.40773,2 1.025827,0 1.868652,0.3375 1.872943,0.75 0.0098,0.94483 4.875475,3.24128 6.941563,3.27622 0.852849,0.0144 3.350635,0.90304 5.550635,1.9747 4.018225,1.95735 7.728438,2.03417 17.976769,0.37222 z M 124.52584,121.25 c 0.38571,-6.4625 0.71168,-12.2 0.72436,-12.75 0.0127,-0.55 -2.40092,-2.35437 -5.36357,-4.00971 -2.96264,-1.65534 -6.94079,-4.00118 -8.84032,-5.212979 -1.89953,-1.211797 -3.54908,-2.107427 -3.66568,-1.990289 -0.1166,0.117138 0.29397,6.625478 0.91238,14.462978 0.75467,9.56451 1.5087,14.25 2.29323,14.25 0.64288,0 1.74539,0.69466 2.45003,1.5437 1.15935,1.39693 8.50881,5.33062 10.126,5.41978 0.36425,0.0201 0.97785,-5.25098 1.36357,-11.71348 z M 18.361626,129.5 c 0.316583,-0.825 1.213052,-1.5 1.992155,-1.5 0.779102,0 3.694031,-0.73554 6.47762,-1.63454 l 5.061071,-1.63455 0.303764,-12.91297 L 32.5,98.904971 30.047565,99.522346 c -1.348839,0.339555 -4.114141,1.823434 -6.145116,3.297514 C 9.1921029,113.49659 9.3774658,113.16444 13.477871,121.5 c 1.352771,2.75 2.473657,6.0125 2.490857,7.25 0.03542,2.54833 1.523802,3.01483 2.392898,0.75 z M 74.164419,80.511484 c 0.513142,-2.845896 3.663623,-3.15055 4.662308,-0.450849 0.798878,2.159574 0.874834,2.13548 3.386886,-1.074327 C 85.169155,75.209825 88,75.445782 88,79.468615 88,82.50179 89.517253,82.770539 91,80 c 1.255388,-2.345713 4.809175,-2.660856 5.638374,-0.5 0.773683,2.016186 1.973266,1.88836 4.322196,-0.460568 1.77935,-1.779347 1.90385,-2.891529 1.34697,-12.032323 -0.40355,-6.623964 -0.98912,-9.948297 -1.71057,-9.711104 -0.603333,0.198358 -1.244374,1.36542 -1.424534,2.593472 -0.433786,2.956872 -2.806392,3.751764 -5.073733,1.699848 -1.714332,-1.551449 -1.928949,-1.497348 -3.485808,0.878719 C 89.380946,64.348237 88.086416,65 85.583936,65 c -2.13433,0 -3.590016,0.573461 -3.970127,1.564014 -0.330092,0.860207 -1.390737,1.466048 -2.356989,1.346313 -0.966251,-0.119736 -2.59448,0.143851 -3.618287,0.585748 -1.191672,0.514352 -2.842792,0.223767 -4.588729,-0.807583 C 69.138623,66.559529 68.007179,66.392821 67.26863,67.13137 66.530081,67.869919 65.603804,67.85833 64.173101,67.09264 63.050211,66.491688 61.227416,66 60.122445,66 c -1.10497,0 -2.646302,-0.909823 -3.425181,-2.021828 -1.250772,-1.785727 -1.563632,-1.844115 -2.679148,-0.5 C 52.249205,65.609579 49.910316,65.373051 49.289749,63 48.710687,60.785662 46.994672,60.405328 45.287132,62.112868 43.833756,63.566244 42,62.387562 42,60 c 0,-3.059725 -1.788314,-3.251352 -2.414507,-0.258726 -1.017413,4.862295 -0.407556,12.161511 1.122181,13.43108 1.13714,0.943742 1.882511,0.940163 3.414204,-0.0164 C 46.653546,71.574906 48,72.46304 48,75.714005 c 0,2.451592 0.101708,2.503926 1.828741,0.940983 2.545097,-2.303282 4.025207,-2.069644 5.353213,0.845012 1.284013,2.818102 1.888408,3.029638 3.643005,1.275041 0.947163,-0.947163 1.653521,-0.957319 3.114722,-0.04478 1.502078,0.938064 2.137527,0.881639 3.097486,-0.27504 1.963279,-2.365607 3.759561,-1.685839 5.557552,2.103146 1.708008,3.599358 2.915107,3.583506 3.5697,-0.04688 z m 5.579835,-19.767047 c 0.684339,-0.538884 2.371839,-0.764237 3.75,-0.500785 C 85.149717,60.560114 86,60.272652 86,59.396512 86,57.745355 89.138002,56 92.106645,56 c 1.23097,0 3.948944,-0.7875 6.039943,-1.75 3.728482,-1.716246 4.825612,-3.531116 2.866552,-4.74188 -0.54277,-0.335452 -1.694981,-3.045755 -2.560459,-6.022895 -0.865478,-2.977139 -2.361534,-6.386043 -3.324569,-7.575341 -1.576257,-1.946595 -1.990439,-2.025036 -4.150873,-0.786122 -1.319946,0.756931 -3.000793,1.927586 -3.735217,2.601456 -0.734423,0.67387 -3.001824,1.9492 -5.038668,2.834067 -2.036845,0.884868 -4.484748,2.021019 -5.439785,2.524782 -2.626373,1.385359 -9.368484,1.096908 -10.657245,-0.455954 -1.190258,-1.434174 -10.383439,-4.997824 -15.696982,-6.084789 -3.904924,-0.79881 -4.974634,0.436557 -7.488611,8.648302 L 40.98946,51.5 43.74473,53.745033 C 46.740353,56.185909 48,56.557405 48,55 c 0,-1.754215 3.842431,-1.071817 4.432455,0.787184 0.311976,0.982951 1.573136,1.862956 2.802577,1.955567 1.22944,0.09261 2.392011,0.638378 2.58349,1.212816 C 58.010002,59.530005 59.441667,60 61,60 c 1.558333,0 3.037039,0.5625 3.286013,1.25 0.360318,0.994956 0.894835,0.988589 2.619735,-0.03121 1.79884,-1.063511 2.531936,-1.025635 4.314487,0.222913 2.18329,1.529235 6.103797,1.208536 8.524019,-0.697269 z m 1.831859,-34.589009 4.570211,-2.844572 -7.43978,-7.76018 -7.43978,-7.7601812 -4.976937,4.8547522 C 61.295382,17.517079 56,24.077193 56,25.392665 c 0,1.694375 7.083566,3.532201 13.752951,3.568193 6.271649,0.03385 7.871286,-0.34572 11.823162,-2.80543 z"
       id="path2892" />
    <path
       style="fill:#0d0408"
       d="m 61.531703,196.0513 c -0.322483,-0.52179 -0.09931,-2.88429 0.495944,-5.25 0.595252,-2.36572 0.945044,-7.2263 0.777315,-10.8013 L 62.5,173.5 60,177.73282 c -2.523891,4.27326 -4.422574,5.74208 -6.090242,4.71141 -1.57509,-0.97346 -0.990483,-8.8965 1.106063,-14.99022 1.108702,-3.22249 1.888234,-6.24185 1.732293,-6.70967 -0.15594,-0.46782 -2.385064,0.78671 -4.953608,2.78784 -6.637849,5.1715 -8.318429,4.5114 -8.202998,-3.22202 0.09548,-6.39701 1.497217,-11.01361 4.67799,-15.40695 2.185562,-3.01874 2.027673,-8.82483 -0.269498,-9.9103 -0.825,-0.38983 -2.939466,-1.45955 -4.698813,-2.37715 -5.122446,-2.67164 -11.206236,-4.57841 -11.758244,-3.68524 -0.279921,0.45292 -2.429096,1.33006 -4.775945,1.9492 C 21.776303,132.19634 17,136.08403 17,138.82959 c 0,3.18985 -2.414531,4.29685 -8.6652997,3.97283 L 2.5006547,142.5 1.6961819,136.5 C 0.51476761,127.68866 1.3399308,115.08898 3.3498248,111.25 4.6391022,108.78743 5.7155861,108 7.7928559,108 c 1.786277,0 4.4776601,-1.49225 7.7243201,-4.28278 6.492408,-5.580281 9.232075,-7.262204 14.305121,-8.782125 L 34,93.683425 34.010317,84.591712 C 34.028094,68.927141 35.903985,52.052349 38.467126,44.5 42.713373,31.988338 45.439546,27.71215 56.072823,16.884271 61.681525,11.172922 66.936364,5.4875 67.750242,4.25 68.56412,3.0125 69.773808,2 70.438437,2 c 1.848585,0 17.305781,16.463441 24.322122,25.905462 3.435342,4.623005 6.731211,10.248005 7.324161,12.5 0.59294,2.251996 1.64778,4.994538 2.34407,6.094538 0.70762,1.117886 1.55075,7.072153 1.91161,13.5 0.35509,6.325 0.94213,16.165808 1.30455,21.868462 l 0.65893,10.368462 6.7592,4.372505 c 3.71756,2.404878 7.81169,4.825491 9.09806,5.379151 1.28637,0.55365 3.01386,1.42525 3.83886,1.93688 0.825,0.51163 2.2181,1.14695 3.09577,1.41182 0.87768,0.26487 3.02825,2.64423 4.77906,5.28746 l 3.18327,4.80587 -0.27905,12.03469 L 138.5,139.5 l -6.76373,0.296 c -5.36811,0.23493 -6.88615,-0.023 -7.35699,-1.25 -0.32629,-0.8503 -1.5045,-1.546 -2.61823,-1.546 -2.33711,0 -8.09654,-3.25081 -11.84131,-6.68363 l -2.58026,-2.36531 -4.66974,2.60996 C 100.10138,131.9965 98,133.75152 98,134.46106 c 0,1.33677 3.90075,10.76257 6.65376,16.07819 2.50872,4.84393 1.5164,7.00663 -3.08524,6.7241 -3.665364,-0.22505 -3.773787,-0.14765 -2.211429,1.57874 0.903599,0.99846 1.655429,2.22996 1.670729,2.73665 0.0153,0.50669 1.3653,2.68892 3,4.8494 1.6347,2.16048 2.97218,4.50929 2.97218,5.21958 0,0.7103 0.92392,2.93641 2.05316,4.94693 4.18355,7.44845 0.64502,10.37402 -7.67567,6.34604 -2.507233,-1.21373 -6.574901,-2.43404 -9.039264,-2.71181 l -4.48066,-0.50504 0.805119,3.88808 c 0.442816,2.13844 0.812364,5.91308 0.821217,8.38808 0.01454,4.06599 -0.225017,4.52618 -2.483902,4.77144 -1.661422,0.18039 -4.267818,-1.07748 -7.770286,-3.75 C 76.331056,190.80965 73.743556,189 73.479714,189 73.215871,189 73,189.81537 73,190.81194 c 0,3.76192 -9.655227,8.17297 -11.468297,5.23936 z M 85.41493,189.25 c -0.342746,-1.5125 -1.253226,-4.97559 -2.023288,-7.69576 -0.770298,-2.72101 -1.017196,-5.32869 -0.548867,-5.79702 1.292448,-1.29244 15.874566,0.82755 18.778115,2.73003 3.0126,1.97394 4.30101,1.21859 2.59126,-1.51916 C 103.54547,175.90057 103,174.42619 103,173.69171 c 0,-0.73449 -1.33748,-3.10309 -2.97218,-5.26357 -1.634699,-2.16048 -2.984699,-4.35672 -3,-4.88053 -0.0153,-0.52382 -1.369044,-2.33619 -3.008317,-4.02749 -3.716886,-3.83485 -5.157186,-9.35131 -2.368142,-9.07016 1.016751,0.1025 3.115434,0.71818 4.663739,1.3682 3.94277,1.65526 4.88469,1.51188 3.73232,-0.56816 C 97.96751,147.49574 94,138.24751 94,137.15351 c 0,-1.5551 -2.086048,-1.40347 -4.356873,0.31668 -1.757331,1.33119 -1.636715,1.61602 2.25,5.31336 C 94.151907,144.93228 96,147.21 96,147.84516 c 0,0.6619 -1.600682,1.16904 -3.75,1.18811 -6.2114,0.0551 -10.369541,4.96278 -6.75,7.96673 0.825,0.68469 1.5,1.86479 1.5,2.62244 0,0.75766 0.45,1.37756 1,1.37756 0.55,0 1,1.8 1,4 0,2.2 -0.249689,4 -0.554864,4 -0.774126,0 -9.409858,-3.78895 -12.51276,-5.49 -2.468556,-1.3533 -2.613245,-1.28145 -3.75,1.86219 C 71.532069,167.17059 71,169.62255 71,170.821 71,172.01945 70.55,173 70,173 c -0.595512,0 -1.016439,-3.94376 -1.040641,-9.75 l -0.04064,-9.75 -2.909848,3.40292 c -1.600416,1.8716 -3.095846,4.3466 -3.323177,5.5 C 62.458363,163.55631 62.211082,161.5525 62.136182,157.95 62.061282,154.3475 61.46,150.86 60.8,150.2 c -1.574022,-1.57402 -5.511318,-1.54164 -6.079762,0.05 -0.245536,0.6875 -0.77479,0.94575 -1.176121,0.57388 -0.40133,-0.37187 0.646851,-3.18437 2.329293,-6.25 C 57.555851,141.50825 58.53441,139 58.047985,139 57.561559,139 56.451771,138.72686 55.581787,138.39301 54.32657,137.91134 54,138.50287 54,141.25815 c 0,1.90967 -0.817853,4.54532 -1.817451,5.85699 C 49.391592,150.77743 46.066771,161 47.666591,161 c 0.387583,0 2.888564,-1.84146 5.557736,-4.09214 6.614556,-5.57748 8.172511,-4.87962 7.490312,3.35514 -0.284183,3.43035 -0.865903,7.35346 -1.29271,8.71801 l -0.776014,2.48102 2.757831,-1.807 C 66.313158,166.43825 67,167.71131 67,180.02763 c 0,7.13896 0.356294,10.8702 1,10.47237 0.55,-0.33992 1,-1.94148 1,-3.55902 0,-2.54425 0.370965,-2.93955 2.75,-2.93035 1.690051,0.007 4.677179,1.54418 7.75,3.98937 2.75,2.18831 5.346073,3.98353 5.769052,3.98937 0.422979,0.006 0.488624,-1.22687 0.145878,-2.73937 z m 0.147716,-29.943 C 84.153191,157.2328 83,154.61221 83,153.48347 83,150.91503 87.733553,148 91.904292,148 c 1.702639,0 3.072482,-0.3375 3.044094,-0.75 -0.02839,-0.4125 -1.92276,-2.25031 -4.209717,-4.08401 -3.783806,-3.0339 -4.566803,-3.27419 -8.698386,-2.66933 -6.499257,0.95148 -17.172092,1.00359 -19.692377,0.0961 -1.777351,-0.63994 -2.608021,-0.10603 -4.770423,3.06616 -2.341259,3.43457 -2.430984,3.8716 -0.847907,4.12996 6.279697,1.02486 6.270364,1.01596 6.271645,5.98012 l 0.0012,4.73095 2.365128,-2.75 c 3.668802,-4.26582 4.511329,-3.48791 4.873768,4.5 0.280251,6.17652 0.453312,6.76879 1.16881,4 0.461918,-1.7875 0.950054,-3.25 1.084746,-3.25 0.134693,0 3.565943,1.51484 7.625,3.36631 l 7.380105,3.36631 0.312646,-2.32717 c 0.173249,-1.28958 -0.829941,-4.00864 -2.25,-6.09845 z M 12.946949,138.56392 c 0.797683,-0.96115 0.880448,-2.03596 0.250264,-3.25 C 12.679347,134.31627 11.945547,131.3625 11.566546,128.75 11.1101,125.60366 10.391722,124 9.4387271,124 8.4268788,124 8,122.81318 8,120 c 0,-4.82428 -1.5632073,-5.24146 -2.8038346,-0.74828 -1.2565772,4.55095 0.5060255,17.89062 2.5763535,19.49828 2.1090876,1.63775 3.7085191,1.58024 5.1744301,-0.18608 z m 67.52982,-2.19078 c 2.187223,-0.35469 5.75419,-1.82125 7.926594,-3.25902 2.172404,-1.43777 6.682858,-3.82675 10.023231,-5.30885 l 6.073406,-2.69473 -0.0486,-5.30527 c -0.0267,-2.9179 -0.42984,-11.95311 -0.89587,-20.078247 -0.82179,-14.327833 -0.90351,-14.72213 -2.71193,-13.085529 -1.759594,1.592412 -2.005812,1.554791 -4.371866,-0.668002 l -2.50726,-2.355448 -2.972541,3.440978 C 88.109737,90.395477 87.973584,90.441036 86.509722,88.55887 85.679375,87.491249 85,86.028749 85,85.30887 c 0,-2.148657 -2.721718,-1.481024 -3.322118,0.814911 -0.446839,1.708712 -1.055948,1.998146 -3.116632,1.480948 -1.408687,-0.353558 -2.575562,-0.29676 -2.593053,0.126219 -0.01749,0.422979 -0.676735,1.62101 -1.464983,2.662293 -1.37705,1.819093 -1.549114,1.769133 -4.393343,-1.275624 -1.702498,-1.82253 -3.229472,-2.733115 -3.594034,-2.143241 -1.096447,1.774088 -4.338359,1.117097 -5.967924,-1.209433 -1.341057,-1.914628 -1.849019,-2.057993 -3.543135,-1 C 54.078638,86.592348 52,86.274644 52,84 52,81.374022 49.319701,81.41735 48.48195,84.05687 47.380342,87.527729 44.542615,85.997116 44.189635,81.741683 43.910747,78.379481 43.593894,78 41.06547,78 l -2.813799,0 -0.719637,11.75 c -1.241416,20.26944 -1.354449,33.6857 -0.294876,35 0.554252,0.6875 1.669153,1.25 2.477557,1.25 0.808405,0 2.613991,0.9 4.012414,2 1.398424,1.1 3.381902,2 4.40773,2 1.025827,0 1.868652,0.3375 1.872943,0.75 0.0098,0.94483 4.875475,3.24128 6.941563,3.27622 0.852849,0.0144 3.350635,0.90304 5.550635,1.9747 4.018225,1.95735 7.728438,2.03417 17.976769,0.37222 z m 54.824401,-5.26822 c 0.31886,-2.69229 0.39348,-6.40479 0.16581,-8.25 C 134.91474,118.37902 131.99281,112 130.49486,112 129.30053,112 128,122.24364 128,131.65088 128,135.9203 128.0616,136 131.36071,136 c 3.27762,0 3.37504,-0.12102 3.94046,-4.89508 z M 124.52584,121.25 c 0.38571,-6.4625 0.71168,-12.2 0.72436,-12.75 0.0127,-0.55 -2.40092,-2.35437 -5.36357,-4.00971 -2.96264,-1.65534 -6.94079,-4.00118 -8.84032,-5.212979 -1.89953,-1.211797 -3.54908,-2.107427 -3.66568,-1.990289 -0.1166,0.117138 0.29397,6.625478 0.91238,14.462978 0.75467,9.56451 1.5087,14.25 2.29323,14.25 0.64288,0 1.74539,0.69466 2.45003,1.5437 1.15935,1.39693 8.50881,5.33062 10.126,5.41978 0.36425,0.0201 0.97785,-5.25098 1.36357,-11.71348 z M 18.361626,129.5 c 0.316583,-0.825 1.213052,-1.5 1.992155,-1.5 0.779102,0 3.694031,-0.73554 6.47762,-1.63454 l 5.061071,-1.63455 0.303764,-12.91297 L 32.5,98.904971 30.047565,99.522346 c -1.348839,0.339555 -4.114141,1.823434 -6.145116,3.297514 C 9.1921029,113.49659 9.3774658,113.16444 13.477871,121.5 c 1.352771,2.75 2.473657,6.0125 2.490857,7.25 0.03542,2.54833 1.523802,3.01483 2.392898,0.75 z M 74.164419,80.511484 c 0.513142,-2.845896 3.663623,-3.15055 4.662308,-0.450849 0.798878,2.159574 0.874834,2.13548 3.386886,-1.074327 C 85.169155,75.209825 88,75.445782 88,79.468615 88,82.50179 89.517253,82.770539 91,80 c 1.255388,-2.345713 4.809175,-2.660856 5.638374,-0.5 0.773683,2.016186 1.973266,1.88836 4.322196,-0.460568 1.77935,-1.779347 1.90385,-2.891529 1.34697,-12.032323 -0.40355,-6.623964 -0.98912,-9.948297 -1.71057,-9.711104 -0.603333,0.198358 -1.244374,1.36542 -1.424534,2.593472 -0.433786,2.956872 -2.806392,3.751764 -5.073733,1.699848 -1.714332,-1.551449 -1.928949,-1.497348 -3.485808,0.878719 C 89.380946,64.348237 88.086416,65 85.583936,65 c -2.13433,0 -3.590016,0.573461 -3.970127,1.564014 -0.330092,0.860207 -1.390737,1.466048 -2.356989,1.346313 -0.966251,-0.119736 -2.59448,0.143851 -3.618287,0.585748 -1.191672,0.514352 -2.842792,0.223767 -4.588729,-0.807583 C 69.138623,66.559529 68.007179,66.392821 67.26863,67.13137 66.530081,67.869919 65.603804,67.85833 64.173101,67.09264 63.050211,66.491688 61.227416,66 60.122445,66 c -1.10497,0 -2.646302,-0.909823 -3.425181,-2.021828 -1.250772,-1.785727 -1.563632,-1.844115 -2.679148,-0.5 C 52.249205,65.609579 49.910316,65.373051 49.289749,63 48.710687,60.785662 46.994672,60.405328 45.287132,62.112868 43.833756,63.566244 42,62.387562 42,60 c 0,-3.059725 -1.788314,-3.251352 -2.414507,-0.258726 -1.017413,4.862295 -0.407556,12.161511 1.122181,13.43108 1.13714,0.943742 1.882511,0.940163 3.414204,-0.0164 C 46.653546,71.574906 48,72.46304 48,75.714005 c 0,2.451592 0.101708,2.503926 1.828741,0.940983 2.545097,-2.303282 4.025207,-2.069644 5.353213,0.845012 1.284013,2.818102 1.888408,3.029638 3.643005,1.275041 0.947163,-0.947163 1.653521,-0.957319 3.114722,-0.04478 1.502078,0.938064 2.137527,0.881639 3.097486,-0.27504 1.963279,-2.365607 3.759561,-1.685839 5.557552,2.103146 1.708008,3.599358 2.915107,3.583506 3.5697,-0.04688 z m 5.579835,-19.767047 c 0.684339,-0.538884 2.371839,-0.764237 3.75,-0.500785 C 85.149717,60.560114 86,60.272652 86,59.396512 86,57.745355 89.138002,56 92.106645,56 c 1.23097,0 3.948944,-0.7875 6.039943,-1.75 3.728482,-1.716246 4.825612,-3.531116 2.866552,-4.74188 -0.54277,-0.335452 -1.694981,-3.045755 -2.560459,-6.022895 -0.865478,-2.977139 -2.361534,-6.386043 -3.324569,-7.575341 -1.576257,-1.946595 -1.990439,-2.025036 -4.150873,-0.786122 -1.319946,0.756931 -3.000793,1.927586 -3.735217,2.601456 -0.734423,0.67387 -3.001824,1.9492 -5.038668,2.834067 -2.036845,0.884868 -4.484748,2.021019 -5.439785,2.524782 -2.626373,1.385359 -9.368484,1.096908 -10.657245,-0.455954 -1.190258,-1.434174 -10.383439,-4.997824 -15.696982,-6.084789 -3.904924,-0.79881 -4.974634,0.436557 -7.488611,8.648302 L 40.98946,51.5 43.74473,53.745033 C 46.740353,56.185909 48,56.557405 48,55 c 0,-1.754215 3.842431,-1.071817 4.432455,0.787184 0.311976,0.982951 1.573136,1.862956 2.802577,1.955567 1.22944,0.09261 2.392011,0.638378 2.58349,1.212816 C 58.010002,59.530005 59.441667,60 61,60 c 1.558333,0 3.037039,0.5625 3.286013,1.25 0.360318,0.994956 0.894835,0.988589 2.619735,-0.03121 1.79884,-1.063511 2.531936,-1.025635 4.314487,0.222913 2.18329,1.529235 6.103797,1.208536 8.524019,-0.697269 z M 74.5,39 c 0.339919,-0.55 1.941476,-1 3.559017,-1 C 79.676558,38 81,37.55 81,37 81,36.45 81.800658,36 82.779241,36 83.757823,36 85.207165,35.1 86,34 86.792835,32.9 88.017177,32 88.720759,32 89.424342,32 90,31.811804 90,31.581787 c 0,-0.230016 0.273145,-1.130016 0.606989,-2 0.959122,-2.499433 -5.422927,-2.100032 -7.660039,0.47938 C 81.358139,31.893081 79.987817,32.127169 70.626679,32.1658 60.724905,32.206662 54,30.827473 54,28.755889 54,28.34015 53.1,28 52,28 c -1.1,0 -2,0.188196 -2,0.418213 0,0.230016 -0.257933,1.090374 -0.573184,1.911905 -0.437018,1.13885 0.750789,1.789986 5,2.740918 C 57.492067,33.757009 60,34.696651 60,35.15913 60,35.621608 61.544676,36 63.432612,36 c 2.554354,0 3.595024,0.511714 4.067388,2 0.681549,2.147372 5.835812,2.883695 7,1 z m 7.076113,-12.844572 4.570211,-2.844572 -7.43978,-7.76018 -7.43978,-7.7601812 -4.976937,4.8547522 C 61.295382,17.517079 56,24.077193 56,25.392665 c 0,1.694375 7.083566,3.532201 13.752951,3.568193 6.271649,0.03385 7.871286,-0.34572 11.823162,-2.80543 z"
       id="path2890" />
  </g>
</svg>
